<svg width="64" height="64" viewBox="0 0 64 64" fill="none" xmlns="http://www.w3.org/2000/svg">
<rect width="64" height="64" rx="32" fill="#73ED7C"/>
<path d="M42 41.5C40.25 41.5 38.5 41.25 36.85 40.75C36.35 40.6 35.8 40.7 35.4 41.1L32.5 44C28.05 41.75 22.25 36 20 31.5L22.9 28.6C23.3 28.2 23.4 27.65 23.25 27.15C22.75 25.5 22.5 23.75 22.5 22C22.5 21.175 21.825 20.5 21 20.5H17C16.175 20.5 15.5 21.175 15.5 22C15.5 31.665 23.335 39.5 33 39.5C33.825 39.5 34.5 38.825 34.5 38V33.5C34.5 32.675 33.825 32 33 32C31.25 32 29.5 31.75 27.85 31.25C27.35 31.1 26.8 31.2 26.4 31.6L23.5 34.5C19.05 32.25 13.25 26.5 11 22L13.9 19.1C14.3 18.7 14.4 18.15 14.25 17.65C13.75 16 13.5 14.25 13.5 12.5C13.5 11.675 12.825 11 12 11H8C7.175 11 6.5 11.675 6.5 12.5C6.5 22.165 14.335 30 24 30C24.825 30 25.5 29.325 25.5 28.5V24C25.5 23.175 24.825 22.5 24 22.5C22.25 22.5 20.5 22.25 18.85 21.75" stroke="#042A2D" stroke-width="2" stroke-linecap="round" stroke-linejoin="round"/>
<path d="M28 26L32 30L42 20" stroke="#042A2D" stroke-width="2" stroke-linecap="round" stroke-linejoin="round"/>
</svg>
